<svg width="24" height="24" viewBox="0 0 24 24" fill="none" xmlns="http://www.w3.org/2000/svg">
<path d="M15.9999 20.999V18.999C15.9999 17.9382 15.5785 16.9207 14.8283 16.1706C14.0782 15.4205 13.0607 14.999 11.9999 14.999H5.99988C4.93901 14.999 3.9216 15.4205 3.17145 16.1706C2.42131 16.9207 1.99988 17.9382 1.99988 18.999V20.999" stroke="#6A7282" stroke-width="1.99986" stroke-linecap="round" stroke-linejoin="round"/>
<path d="M15.9989 3.12793C16.8567 3.3503 17.6163 3.85119 18.1586 4.55199C18.7009 5.25279 18.9951 6.11382 18.9951 6.99993C18.9951 7.88604 18.7009 8.74707 18.1586 9.44787C17.6163 10.1487 16.8567 10.6496 15.9989 10.8719" stroke="#6A7282" stroke-width="1.99986" stroke-linecap="round" stroke-linejoin="round"/>
<path d="M21.9987 20.9989V18.9989C21.998 18.1126 21.703 17.2517 21.16 16.5512C20.617 15.8508 19.8568 15.3505 18.9987 15.1289" stroke="#6A7282" stroke-width="1.99986" stroke-linecap="round" stroke-linejoin="round"/>
<path d="M8.99963 11C11.2088 11 12.9996 9.20914 12.9996 7C12.9996 4.79086 11.2088 3 8.99963 3C6.79049 3 4.99963 4.79086 4.99963 7C4.99963 9.20914 6.79049 11 8.99963 11Z" stroke="#6A7282" stroke-width="1.99986" stroke-linecap="round" stroke-linejoin="round"/>
</svg>
