<svg width="24" height="24" viewBox="0 0 24 24" fill="none" xmlns="http://www.w3.org/2000/svg">
<path d="M15.9998 20.999V18.999C15.9998 17.9382 15.5783 16.9207 14.8282 16.1706C14.078 15.4205 13.0606 14.999 11.9998 14.999H5.99976C4.93889 14.999 3.92147 15.4205 3.17133 16.1706C2.42118 16.9207 1.99976 17.9382 1.99976 18.999V20.999" stroke="#F3793A" stroke-width="1.99986" stroke-linecap="round" stroke-linejoin="round"/>
<path d="M15.9988 3.12793C16.8565 3.3503 17.6162 3.85119 18.1585 4.55199C18.7007 5.25279 18.995 6.11382 18.995 6.99993C18.995 7.88604 18.7007 8.74707 18.1585 9.44787C17.6162 10.1487 16.8565 10.6496 15.9988 10.8719" stroke="#F3793A" stroke-width="1.99986" stroke-linecap="round" stroke-linejoin="round"/>
<path d="M21.9988 20.9989V18.9989C21.9981 18.1126 21.7031 17.2517 21.1601 16.5512C20.6172 15.8508 19.8569 15.3505 18.9988 15.1289" stroke="#F3793A" stroke-width="1.99986" stroke-linecap="round" stroke-linejoin="round"/>
<path d="M8.99976 11C11.2089 11 12.9998 9.20914 12.9998 7C12.9998 4.79086 11.2089 3 8.99976 3C6.79062 3 4.99976 4.79086 4.99976 7C4.99976 9.20914 6.79062 11 8.99976 11Z" stroke="#F3793A" stroke-width="1.99986" stroke-linecap="round" stroke-linejoin="round"/>
</svg>
