<svg width="24" height="24" viewBox="0 0 24 24" fill="none" xmlns="http://www.w3.org/2000/svg">
<path d="M14.9994 20.999V12.999C14.9994 12.7338 14.894 12.4795 14.7065 12.2919C14.519 12.1044 14.2646 11.999 13.9994 11.999H9.99939C9.73417 11.999 9.47982 12.1044 9.29228 12.2919C9.10475 12.4795 8.99939 12.7338 8.99939 12.999V20.999" stroke="#F3793A" stroke-width="1.99986" stroke-linecap="round" stroke-linejoin="round"/>
<path d="M3 9.99944C2.99993 9.70852 3.06333 9.4211 3.18577 9.15721C3.30822 8.89332 3.48676 8.65933 3.70895 8.47154L10.7085 2.47196C11.0694 2.16689 11.5268 1.99951 11.9994 1.99951C12.472 1.99951 12.9293 2.16689 13.2903 2.47196L20.2898 8.47154C20.512 8.65933 20.6905 8.89332 20.813 9.15721C20.9354 9.4211 20.9988 9.70852 20.9987 9.99944V18.9988C20.9987 19.5292 20.788 20.0379 20.413 20.4129C20.038 20.788 19.5293 20.9987 18.9989 20.9987H4.99986C4.46946 20.9987 3.96079 20.788 3.58575 20.4129C3.2107 20.0379 3 19.5292 3 18.9988V9.99944Z" stroke="#F3793A" stroke-width="1.99986" stroke-linecap="round" stroke-linejoin="round"/>
</svg>
