<svg width="24" height="24" viewBox="0 0 24 24" fill="none" xmlns="http://www.w3.org/2000/svg">
<path d="M9.6706 4.136C9.72569 3.55638 9.99491 3.01813 10.4256 2.62639C10.8564 2.23465 11.4177 2.01758 11.9999 2.01758C12.5822 2.01758 13.1435 2.23465 13.5742 2.62639C14.005 3.01813 14.2742 3.55638 14.3293 4.136C14.3624 4.51043 14.4852 4.87137 14.6874 5.18827C14.8895 5.50517 15.1651 5.7687 15.4907 5.95655C15.8162 6.14441 16.1823 6.25106 16.5578 6.26748C16.9334 6.28389 17.3073 6.2096 17.648 6.05087C18.1771 5.81067 18.7766 5.77591 19.3299 5.95336C19.8832 6.13082 20.3507 6.50779 20.6414 7.01091C20.932 7.51403 21.0251 8.1073 20.9025 8.67526C20.7798 9.24322 20.4503 9.74523 19.9779 10.0836C19.6703 10.2994 19.4192 10.5862 19.2458 10.9196C19.0725 11.253 18.982 11.6232 18.982 11.999C18.982 12.3747 19.0725 12.745 19.2458 13.0784C19.4192 13.4118 19.6703 13.6985 19.9779 13.9143C20.4503 14.2527 20.7798 14.7547 20.9025 15.3227C21.0251 15.8906 20.932 16.4839 20.6414 16.987C20.3507 17.4901 19.8832 17.8671 19.3299 18.0446C18.7766 18.222 18.1771 18.1873 17.648 17.947C17.3073 17.7883 16.9334 17.714 16.5578 17.7304C16.1823 17.7469 15.8162 17.8535 15.4907 18.0414C15.1651 18.2292 14.8895 18.4927 14.6874 18.8096C14.4852 19.1265 14.3624 19.4875 14.3293 19.8619C14.2742 20.4415 14.005 20.9798 13.5742 21.3715C13.1435 21.7633 12.5822 21.9803 11.9999 21.9803C11.4177 21.9803 10.8564 21.7633 10.4256 21.3715C9.99491 20.9798 9.72569 20.4415 9.6706 19.8619C9.63755 19.4874 9.51471 19.1263 9.31249 18.8093C9.11027 18.4922 8.83463 18.2286 8.50891 18.0408C8.1832 17.8529 7.817 17.7463 7.44133 17.73C7.06567 17.7136 6.69161 17.7881 6.35083 17.947C5.82176 18.1873 5.22224 18.222 4.66895 18.0446C4.11566 17.8671 3.64819 17.4901 3.35752 16.987C3.06685 16.4839 2.97378 15.8906 3.09642 15.3227C3.21905 14.7547 3.54863 14.2527 4.02099 13.9143C4.32859 13.6985 4.57968 13.4118 4.75303 13.0784C4.92638 12.745 5.01688 12.3747 5.01688 11.999C5.01688 11.6232 4.92638 11.253 4.75303 10.9196C4.57968 10.5862 4.32859 10.2994 4.02099 10.0836C3.54929 9.74506 3.2203 9.24324 3.09796 8.67567C2.97562 8.1081 3.06867 7.51531 3.35902 7.01252C3.64938 6.50972 4.1163 6.13284 4.66904 5.95512C5.22178 5.77739 5.82085 5.81152 6.34983 6.05087C6.69056 6.2096 7.06452 6.28389 7.44006 6.26748C7.81559 6.25106 8.18164 6.14441 8.50722 5.95655C8.8328 5.7687 9.10833 5.50517 9.31049 5.18827C9.51265 4.87137 9.63549 4.51043 9.6686 4.136" stroke="#F3793A" stroke-width="1.99986" stroke-linecap="round" stroke-linejoin="round"/>
<path d="M11.9993 14.9995C13.6561 14.9995 14.9993 13.6564 14.9993 11.9995C14.9993 10.3427 13.6561 8.99951 11.9993 8.99951C10.3424 8.99951 8.99927 10.3427 8.99927 11.9995C8.99927 13.6564 10.3424 14.9995 11.9993 14.9995Z" stroke="#F3793A" stroke-width="1.99986" stroke-linecap="round" stroke-linejoin="round"/>
</svg>
